# xmcd CD database file
#
# Track frame offsets:
#	150
#	28025
#	44550
#	58142
#	71752
#	87300
#	106325
#	119700
#	140977
#	165972
#
# Disc length: 3875 seconds
#
# Revision: 0
# Processed by: cddbd v1.5.2PL0 Copyright (c) Steve Scherf et al.
# Submitted via: CDex 1.70beta2
#
DISCID=960f210a
DTITLE=Dominique Stark with Friends - The Flute Maker: Reshad Field His Songs and Music
DYEAR=1991
DGENRE=New Age
TTITLE0=The Flute Maker (Part 1)
TTITLE1=If I had the Wings of a Dove
TTITLE2=Time to Remember
TTITLE3=A Nightingale Sang
TTITLE4=Prayer of Abandonment
TTITLE5=Go On Your Way, Be Easy
TTITLE6=It's Light that Makes the Colour visible
TTITLE7=I Will Not Pass By this Way Again
TTITLE8=Gaelic Blessing
TTITLE9=The Flute Maker (Part 2)
EXTD=YEAR: 1991
EXTT0=
EXTT1=
EXTT2=
EXTT3=
EXTT4=
EXTT5=
EXTT6=
EXTT7=
EXTT8=
EXTT9=
PLAYORDER=
